# xmcd CD database file
#
# Track frame offsets:
#	150
#	25725
#	48900
#	73425
#	88800
#	112725
#	143550
#	170325
#	184800
#	206025
#
# Disc length: 2979 seconds
#
# Revision: 0
# Processed by: cddbd v1.5.1PL0 Copyright (c) Steve Scherf et al.
# Submitted via: CDex 1.51
#
DISCID=880ba10a
DTITLE=Salvador Candel  - Meditaciones
DYEAR=2001
DGENRE=New Age
TTITLE0=Despertar
TTITLE1=Con los brazos abiertos
TTITLE2=Alli estas tu
TTITLE3=Tarde de lluvia
TTITLE4=Cielo y tierra
TTITLE5=La rueda de la vida
TTITLE6=Sembrando estrellas
TTITLE7=Inocencia
TTITLE8=Desvelando secretos
TTITLE9=Salvador Candel - Danza de luna
EXTD=YEAR: 2001
EXTT0=
EXTT1=
EXTT2=
EXTT3=
EXTT4=
EXTT5=
EXTT6=
EXTT7=
EXTT8=
EXTT9=
PLAYORDER=
